<?xml version="1.0" encoding="utf-8"?><svg viewBox="0 0 48 48" xmlns="http://www.w3.org/2000/svg" xmlns:xlink="http://www.w3.org/1999/xlink"><style>:root>svg{display:none}:root>svg:target{display:block}</style><svg fill="none" viewBox="0 0 48 48" id="clubs" xmlns="http://www.w3.org/2000/svg"><path d="M28.312 23.645c-.241 0-.465-.067-.663-.173v.003c0 .379-.148.734-.415 1a1.398 1.398 0 0 1-1.673.237 1.402 1.402 0 0 1-1.407 1.333 1.413 1.413 0 0 1-1.407-1.332 1.42 1.42 0 0 1-.767.174c-.74-.048-1.32-.688-1.32-1.456v-6.367l-.725 1.256a1.559 1.559 0 0 1-2.125.572 1.27 1.27 0 0 1-.595-.775 1.265 1.265 0 0 1 .128-.968l2.517-4.36.108-.242c.04-.09.074-.181.106-.273C20.79 10.254 22.561 9 24.697 9c2.773 0 5.03 2.447 5.03 5.455v7.774c0 .378-.147.734-.414 1.001a1.407 1.407 0 0 1-1.001.415ZM24.697 9.752c-1.836 0-3.299 1.037-3.914 2.773-.039.11-.08.22-.128.328-.139.311-.139.311-.178.356l-.005-.004c-.194.365-.769 1.361-2.478 4.32a.52.52 0 0 0 .19.715.824.824 0 0 0 1.1-.295l1.427-2.472a.376.376 0 0 1 .702.188v7.77c0 .367.276.683.616.706a.659.659 0 0 0 .71-.662v-5.081a.376.376 0 0 1 .752 0v6.236a.664.664 0 0 0 1.327 0v-6.236a.376.376 0 1 1 .752 0V23.475a.664.664 0 0 0 1.327 0v-5.081a.376.376 0 1 1 .752 0v3.835a.664.664 0 0 0 1.326 0v-7.774c0-2.593-1.92-4.703-4.278-4.703ZM13.53 29.048l5.459-3.275c.658-.396 1.505-.228 1.927.382.154.223.233.481.245.745a1.403 1.403 0 0 1 1.867.524 1.407 1.407 0 0 1-.418 1.892 1.399 1.399 0 0 1 .657 1.556c-.092.367-.321.676-.646.87l-.002.002c.197.118.367.278.489.48.194.325.251.705.16 1.072a1.408 1.408 0 0 1-.646.87l-6.666 4c-1.244.746-2.683 1.003-4.05.724-1.379-.282-2.521-1.074-3.216-2.232-1.099-1.832-.934-3.996.43-5.648.062-.075.123-.152.18-.232l.151-.217a8384.8 8384.8 0 0 0 2.444-4.4 1.276 1.276 0 0 1 1.736-.497 1.556 1.556 0 0 1 .602 2.116l-.704 1.268Zm.032-2.439a.796.796 0 0 0-.296-.288.524.524 0 0 0-.713.204c-1.648 2.969-2.21 3.98-2.426 4.34l.005.002c-.019.06-.019.06-.217.343-.067.096-.14.188-.215.279-1.173 1.42-1.309 3.208-.365 4.782.585.975 1.551 1.643 2.722 1.882 1.182.24 2.43.017 3.511-.632l6.667-4a.659.659 0 0 0 .228-.91.663.663 0 0 0-.91-.227l-3.289 1.973a.376.376 0 1 1-.387-.645l3.29-1.973 1.067-.641a.66.66 0 0 0 .228-.91.664.664 0 0 0-.91-.228l-4.357 2.614a.376.376 0 1 1-.387-.645l5.347-3.208a.66.66 0 0 0 .228-.91.66.66 0 0 0-.91-.228l-.99.594-4.358 2.615a.375.375 0 1 1-.387-.645l4.357-2.614a.66.66 0 0 0 .203-.95c-.194-.28-.608-.354-.922-.165l-6.662 3.997a.377.377 0 0 1-.523-.505l1.385-2.496a.805.805 0 0 0-.014-.805ZM39.618 36.658c-.694 1.158-1.836 1.95-3.215 2.232-1.368.279-2.806.022-4.05-.724l-6.667-4a1.408 1.408 0 0 1-.646-.87 1.399 1.399 0 0 1 .649-1.551l-.002-.002a1.405 1.405 0 0 1-.645-.87 1.407 1.407 0 0 1 .653-1.56 1.402 1.402 0 0 1-.415-1.889 1.405 1.405 0 0 1 1.867-.524c.013-.264.091-.523.245-.745.423-.61 1.269-.778 1.928-.382l5.46 3.274-.704-1.267a1.56 1.56 0 0 1 .603-2.117 1.276 1.276 0 0 1 1.735.497l2.444 4.401.152.217c.056.08.117.156.18.232 1.363 1.652 1.527 3.816.428 5.648Zm-1.009-5.169a4.457 4.457 0 0 1-.215-.279c-.204-.288-.209-.296-.224-.372-.238-.393-.819-1.438-2.415-4.313a.524.524 0 0 0-.71-.205.805.805 0 0 0-.312 1.094l1.384 2.496a.376.376 0 0 1-.522.504l-6.662-3.996c-.314-.188-.728-.115-.922.166a.659.659 0 0 0 .202.948l.001.001 4.356 2.613a.376.376 0 1 1-.387.646l-5.348-3.209a.659.659 0 0 0-.91.229.66.66 0 0 0 .228.91l1.04.623L31.5 31.93a.376.376 0 1 1-.387.645l-4.357-2.614a.663.663 0 0 0-.682 1.138l1.068.64 3.289 1.974a.376.376 0 1 1-.387.645l-3.29-1.973a.66.66 0 0 0-.91.228.662.662 0 0 0 .229.91l6.666 3.999c1.082.649 2.33.873 3.512.632 1.17-.239 2.137-.907 2.721-1.882.945-1.574.81-3.362-.363-4.782Z" fill="#4CAF4F"/></svg><svg fill="none" viewBox="0 0 48 48" id="event-bookings" xmlns="http://www.w3.org/2000/svg"><path d="M40 42v-4a8 8 0 0 0-8-8h-2a2 2 0 0 1-2-2V18a4 4 0 1 0-8 0v18l-4.8-6.4A4 4 0 0 0 12 28h-.868a3.132 3.132 0 0 0-2.686 4.744L14 42M24 8V6v2Zm12 12h2-2Zm-26 0h2-2Zm4.686-9.314-1.414-1.414 1.414 1.414Zm18.628 0 1.414-1.414-1.414 1.414Z" fill="#4CAF4F"/><path d="M40 42v-4a8 8 0 0 0-8-8h-2a2 2 0 0 1-2-2V18a4 4 0 0 0-4-4v0a4 4 0 0 0-4 4v18l-4.8-6.4A4 4 0 0 0 12 28h-.868a3.132 3.132 0 0 0-2.686 4.744L14 42M24 8V6m12 14h2m-28 0h2m2.686-9.314-1.414-1.414m20.042 1.414 1.414-1.414" stroke="#4CAF4F" stroke-width="2" stroke-linecap="round" stroke-linejoin="round"/></svg><svg fill="none" viewBox="0 0 48 48" id="members" xmlns="http://www.w3.org/2000/svg"><path d="m23.296 29.547.607-.51a11.5 11.5 0 1 0-14.806 0l.607.51-.723.327a18.269 18.269 0 0 0-7.41 6.132l21.725-6.459Zm0 0 .723.327m-.723-.327.723.327m0 0a18.268 18.268 0 0 1 7.41 6.133l.007.01.007.01a1.75 1.75 0 1 1-2.858 2.012l-.006-.01-.007-.01a14.75 14.75 0 0 0-24.144 0v.002A1.73 1.73 0 0 1 3 38.762h-.003c-.359 0-.709-.111-1.001-.32l-.002-.002m22.024-8.567L1.995 38.441m0 0a1.75 1.75 0 0 1-.424-2.434l.424 2.434Zm44.295-.002a1.731 1.731 0 0 0 .422-2.43l-.002-.002a18.268 18.268 0 0 0-7.41-6.133l-.725-.328.61-.51A11.481 11.481 0 0 0 31.783 8.75h-.003a11.275 11.275 0 0 0-3.106.43l-.009.003a1.75 1.75 0 0 0-.923 2.78l-.378.3.378-.3a1.75 1.75 0 0 0 1.871.59l.006-.003a7.833 7.833 0 0 1 2.163-.3M46.29 38.44l-2.846-.134.408-.288a14.788 14.788 0 0 0-12.07-6.268 1.75 1.75 0 0 1 0-3.5 8 8 0 0 0 0-16M46.29 38.44l-.006.003m.006-.004-.006.004M31.782 12.25v.5-.5Zm7.724 17.169.206-.456c.07.031.138.063.206.095-.134.123-.271.243-.412.36Zm0 0 .321.383.176-.15c-.164-.08-.33-.158-.497-.233Zm6.778 9.024c-.292.209-.642.32-1 .32l1-.32ZM9.848 15.805a8 8 0 1 0 13.304 8.89 8 8 0 0 0-13.304-8.89Z" fill="#4CAF4F" stroke="#4CAF4F"/></svg><svg fill="none" viewBox="0 0 48 48" id="payments" xmlns="http://www.w3.org/2000/svg"><path d="M5.5 16.5v.5h37v-2.75A4.25 4.25 0 0 0 38.25 10H9.75a4.25 4.25 0 0 0-4.25 4.25v2.25Zm37 3V19h-37v14.75A4.25 4.25 0 0 0 9.75 38h28.5a4.25 4.25 0 0 0 4.25-4.25V19.5Zm-39-5.25A6.25 6.25 0 0 1 9.75 8h28.5a6.25 6.25 0 0 1 6.25 6.25v19.5A6.25 6.25 0 0 1 38.25 40H9.75a6.25 6.25 0 0 1-6.25-6.25v-19.5ZM31.5 29H36a1 1 0 0 1 0 2h-4.5a1 1 0 0 1 0-2Z" fill="#4CAF4F" stroke="#4CAF4F"/></svg></svg>