<?xml version="1.0" encoding="utf-8"?><svg viewBox="0 0 25 25" xmlns="http://www.w3.org/2000/svg" xmlns:xlink="http://www.w3.org/1999/xlink"><style>:root>svg{display:none}:root>svg:target{display:block}</style><svg fill="none" viewBox="0 0 25 25" id="btn-arrow" xmlns="http://www.w3.org/2000/svg"><path d="m16.5 16.399 3.293-3.293a1 1 0 0 0 0-1.414L16.5 8.399m3 4h-14" stroke="#4CAF4F" stroke-width="1.5" stroke-linecap="round"/></svg><svg fill="none" viewBox="0 0 18 18" id="send" xmlns="http://www.w3.org/2000/svg"><path fill-rule="evenodd" clip-rule="evenodd" d="M17.03.97a.75.75 0 0 1 .178.778l-5.25 15a.75.75 0 0 1-1.393.057l-2.883-6.487-6.487-2.883a.75.75 0 0 1 .057-1.393l15-5.25a.75.75 0 0 1 .778.178ZM9.145 9.916l2.022 4.55 3.54-10.112-5.562 5.562Zm4.5-6.622L3.534 6.833l4.55 2.022 5.563-5.561Z" fill="#fff"/></svg></svg>