<?xml version="1.0" encoding="utf-8"?><svg viewBox="0 0 191 30" xmlns="http://www.w3.org/2000/svg" xmlns:xlink="http://www.w3.org/1999/xlink"><style>:root>svg{display:none}:root>svg:target{display:block}</style><svg fill="none" viewBox="0 0 155 24" id="dark" xmlns="http://www.w3.org/2000/svg"><path d="m18.786 13.134-5.39 9.233-5.392-9.233h10.782Zm1.444-.825H6.554L13.395 24l6.835-11.691ZM28.16 1.65l5.39 9.233H22.768L28.16 1.65Zm0-1.65-6.842 11.691H35L28.16 0Z" fill="#263238"/><path d="m0 0 5.736 10.34L12.004.26 0 0ZM13.396.906l6.016 10.283H7.367L13.396.906ZM20.962 13.434 26.983 24H14.653l6.121-10.566h.188ZM22.265 12.793l5.894 10.405 5.976-10.405h-11.87Z" fill="#4CAF4F"/><path d="M60.033 1.669v20.364h-3.72L47.456 9.216h-.15v12.817H43V1.669h3.778l8.79 12.807h.18V1.669h4.285ZM70.47 22.33c-1.57 0-2.923-.317-4.056-.954a6.537 6.537 0 0 1-2.605-2.724c-.61-1.18-.915-2.575-.915-4.186 0-1.571.305-2.95.915-4.136.61-1.187 1.468-2.112 2.575-2.775 1.114-.663 2.42-.994 3.918-.994 1.007 0 1.945.162 2.813.487a6.242 6.242 0 0 1 2.287 1.442c.657.643 1.167 1.452 1.532 2.426.364.968.547 2.101.547 3.4v1.164H64.584v-2.625h8.91c0-.61-.133-1.15-.398-1.62a2.848 2.848 0 0 0-1.104-1.104c-.464-.272-1.004-.408-1.62-.408-.644 0-1.214.15-1.711.447-.49.292-.875.686-1.154 1.184a3.34 3.34 0 0 0-.427 1.64v2.496c0 .756.14 1.409.418 1.959.285.55.686.974 1.203 1.272.517.299 1.13.448 1.84.448.47 0 .9-.066 1.292-.199a2.684 2.684 0 0 0 1.004-.596c.278-.266.49-.59.636-.975l3.918.259a5.35 5.35 0 0 1-1.223 2.465c-.61.697-1.399 1.24-2.367 1.631-.96.385-2.071.577-3.33.577ZM83.511 6.76l2.804 5.34 2.874-5.34h4.345l-4.425 7.636 4.544 7.637h-4.325l-3.013-5.28-2.963 5.28h-4.375l4.534-7.637-4.375-7.636h4.375ZM102.403 22.33c-1.564 0-2.91-.33-4.037-.993a6.722 6.722 0 0 1-2.585-2.785c-.597-1.186-.895-2.552-.895-4.096 0-1.564.302-2.937.905-4.117a6.722 6.722 0 0 1 2.595-2.774c1.12-.67 2.453-1.004 3.997-1.004 1.333 0 2.499.242 3.5.726s1.793 1.163 2.377 2.038c.583.875.904 1.903.964 3.083h-3.997c-.113-.763-.411-1.376-.895-1.84-.477-.47-1.104-.706-1.879-.706-.656 0-1.23.18-1.72.537-.484.351-.862.865-1.134 1.541-.272.676-.408 1.495-.408 2.456 0 .975.133 1.803.398 2.486.272.683.653 1.203 1.144 1.561.49.358 1.064.537 1.72.537.484 0 .918-.1 1.302-.298.391-.2.713-.487.965-.865.258-.385.427-.846.507-1.382h3.997c-.066 1.166-.384 2.194-.954 3.082-.564.882-1.343 1.571-2.337 2.068-.994.497-2.171.746-3.53.746ZM118.896 22.33c-1.571 0-2.923-.317-4.057-.954a6.544 6.544 0 0 1-2.605-2.724c-.609-1.18-.914-2.575-.914-4.186 0-1.571.305-2.95.914-4.136.61-1.187 1.469-2.112 2.576-2.775 1.113-.663 2.419-.994 3.917-.994 1.008 0 1.946.162 2.814.487a6.237 6.237 0 0 1 2.287 1.442c.656.643 1.167 1.452 1.531 2.426.365.968.547 2.101.547 3.4v1.164H113.01v-2.625h8.909c0-.61-.133-1.15-.398-1.62a2.85 2.85 0 0 0-1.103-1.104c-.464-.272-1.005-.408-1.621-.408-.643 0-1.213.15-1.71.447a3.139 3.139 0 0 0-1.154 1.184 3.339 3.339 0 0 0-.427 1.64v2.496c0 .756.139 1.409.417 1.959.285.55.686.974 1.203 1.272.517.299 1.131.448 1.84.448a4.01 4.01 0 0 0 1.293-.199 2.688 2.688 0 0 0 1.004-.596c.278-.266.49-.59.636-.975l3.918.259a5.355 5.355 0 0 1-1.223 2.465c-.61.697-1.399 1.24-2.367 1.631-.961.385-2.071.577-3.331.577ZM132.906 13.203v8.83h-4.236V6.76h4.037v2.694h.179a4.259 4.259 0 0 1 1.701-2.108c.795-.523 1.76-.785 2.893-.785 1.061 0 1.985.232 2.774.696.789.464 1.402 1.127 1.84 1.989.437.855.656 1.876.656 3.062v9.725h-4.236v-8.97c.007-.934-.232-1.663-.716-2.187-.484-.53-1.15-.795-1.998-.795-.57 0-1.074.123-1.512.368a2.56 2.56 0 0 0-1.014 1.074c-.238.464-.361 1.024-.368 1.68ZM154.212 6.76v3.182h-9.197V6.76h9.197Zm-7.109-3.66h4.235v14.24c0 .39.06.695.179.914.12.212.285.361.498.448.218.086.47.129.755.129.199 0 .398-.017.597-.05l.457-.09.666 3.153c-.212.066-.51.142-.894.228-.385.093-.852.15-1.402.17-1.021.04-1.916-.097-2.685-.408-.762-.312-1.356-.796-1.78-1.452-.424-.656-.633-1.485-.626-2.486V3.101Z" fill="#263238"/></svg><svg fill="none" viewBox="0 0 191 30" id="light" xmlns="http://www.w3.org/2000/svg"><path d="M23.226 16.238 16.56 27.653 9.896 16.238h13.33Zm1.785-1.02H8.103l8.458 14.454 8.45-14.454ZM34.814 2.04l6.665 11.415h-13.33L34.814 2.04Zm0-2.04-8.458 14.454h16.915L34.814 0Z" fill="#fff"/><path d="m0 0 7.091 12.785L14.841.32 0 0ZM16.561 1.12 24 13.833H9.108L16.561 1.12ZM25.915 16.609l7.446 13.063H18.115l7.569-13.063h.231ZM27.527 15.817l7.287 12.863L42.2 15.817H27.527Z" fill="#4CAF4F"/><path d="M74.22 2.063V27.24h-4.598L58.67 11.394h-.184v15.845h-5.323V2.063h4.671L68.7 17.897h.221V2.063h5.299ZM87.124 27.608c-1.942 0-3.614-.393-5.015-1.18-1.393-.795-2.467-1.918-3.221-3.368-.754-1.459-1.131-3.184-1.131-5.176 0-1.942.377-3.646 1.131-5.114.754-1.466 1.815-2.61 3.184-3.43 1.377-.819 2.991-1.229 4.843-1.229 1.246 0 2.406.201 3.48.603a7.717 7.717 0 0 1 2.827 1.782c.811.795 1.442 1.795 1.893 3 .45 1.196.676 2.598.676 4.204v1.438H79.847v-3.245H90.86c0-.754-.163-1.422-.491-2.004a3.521 3.521 0 0 0-1.365-1.364c-.573-.336-1.242-.504-2.004-.504-.795 0-1.5.184-2.114.553a3.878 3.878 0 0 0-1.426 1.463 4.132 4.132 0 0 0-.529 2.028v3.086c0 .934.172 1.741.517 2.421a3.78 3.78 0 0 0 1.487 1.574c.64.369 1.397.553 2.274.553.582 0 1.115-.082 1.598-.246.484-.164.898-.41 1.242-.737.344-.328.606-.73.787-1.205l4.843.32a6.614 6.614 0 0 1-1.512 3.048c-.754.86-1.729 1.533-2.926 2.016-1.188.476-2.56.713-4.118.713ZM103.247 8.357l3.466 6.602 3.553-6.602h5.372l-5.471 9.441 5.618 9.441h-5.347l-3.725-6.527-3.663 6.527h-5.41l5.607-9.44-5.41-9.442h5.41ZM126.603 27.608c-1.934 0-3.598-.41-4.991-1.23-1.385-.827-2.45-1.974-3.196-3.441-.737-1.467-1.106-3.155-1.106-5.065 0-1.934.373-3.63 1.118-5.09.754-1.466 1.824-2.61 3.209-3.429 1.385-.828 3.032-1.242 4.942-1.242 1.647 0 3.089.3 4.327.898 1.237.598 2.217 1.438 2.938 2.52.721 1.082 1.118 2.352 1.192 3.81h-4.942c-.139-.942-.508-1.7-1.106-2.273-.59-.582-1.364-.873-2.323-.873-.812 0-1.521.221-2.127.664-.598.434-1.065 1.07-1.401 1.905-.336.836-.504 1.848-.504 3.036 0 1.205.163 2.23.491 3.074.336.844.808 1.487 1.414 1.93.606.442 1.315.663 2.127.663.598 0 1.135-.122 1.61-.368a3.103 3.103 0 0 0 1.192-1.07c.32-.475.529-1.045.627-1.709h4.942c-.082 1.443-.475 2.713-1.18 3.811-.697 1.09-1.659 1.942-2.889 2.557-1.229.615-2.684.922-4.364.922ZM146.994 27.608c-1.942 0-3.614-.393-5.015-1.18-1.394-.795-2.467-1.918-3.221-3.368-.754-1.459-1.131-3.184-1.131-5.176 0-1.942.377-3.646 1.131-5.114.754-1.466 1.815-2.61 3.184-3.43 1.377-.819 2.991-1.229 4.843-1.229 1.246 0 2.406.201 3.479.603a7.725 7.725 0 0 1 2.828 1.782c.811.795 1.442 1.795 1.893 3 .45 1.196.676 2.598.676 4.204v1.438h-15.944v-3.245h11.014c0-.754-.164-1.422-.491-2.004a3.523 3.523 0 0 0-1.365-1.364c-.574-.336-1.242-.504-2.004-.504-.795 0-1.499.184-2.114.553a3.873 3.873 0 0 0-1.426 1.463 4.132 4.132 0 0 0-.529 2.028v3.086c0 .934.172 1.741.517 2.421.352.68.848 1.205 1.487 1.574.639.369 1.397.553 2.274.553a4.95 4.95 0 0 0 1.598-.246c.484-.164.898-.41 1.242-.737a3.22 3.22 0 0 0 .787-1.205l4.843.32a6.616 6.616 0 0 1-1.512 3.048c-.754.86-1.729 1.533-2.926 2.016-1.188.476-2.561.713-4.118.713ZM164.315 16.323V27.24h-5.237V8.357h4.991v3.332h.221a5.267 5.267 0 0 1 2.103-2.606c.983-.648 2.175-.972 3.577-.972 1.311 0 2.454.287 3.43.861.975.574 1.733 1.393 2.274 2.459.541 1.057.811 2.319.811 3.786v12.022h-5.237V16.151c.008-1.155-.287-2.057-.885-2.704-.598-.656-1.422-.984-2.471-.984-.705 0-1.327.152-1.868.455a3.166 3.166 0 0 0-1.254 1.328c-.295.573-.447 1.266-.455 2.077ZM190.656 8.357v3.934h-11.371V8.357h11.371Zm-8.79-4.523h5.237v17.603c0 .484.074.86.221 1.131.148.262.353.447.615.553.27.107.582.16.934.16.246 0 .492-.02.738-.061.246-.05.434-.086.565-.111l.824 3.897c-.262.082-.631.176-1.106.282-.476.115-1.053.185-1.734.21-1.262.049-2.368-.12-3.319-.505-.942-.385-1.676-.983-2.2-1.794-.525-.812-.783-1.836-.775-3.074V3.834Z" fill="#fff"/></svg></svg>