<?xml version="1.0" encoding="utf-8"?><svg viewBox="0 0 18 18" xmlns="http://www.w3.org/2000/svg" xmlns:xlink="http://www.w3.org/1999/xlink"><style>:root>svg{display:none}:root>svg:target{display:block}</style><svg fill="none" viewBox="0 0 18 18" id="dribbble" xmlns="http://www.w3.org/2000/svg"><path fill-rule="evenodd" clip-rule="evenodd" d="M17.533 8.66a8.536 8.536 0 0 1-.671 3.317 8.588 8.588 0 0 1-3.09 3.748 8.62 8.62 0 0 1-1.45.786 8.568 8.568 0 0 1-6.644 0 8.62 8.62 0 0 1-1.45-.786 8.598 8.598 0 0 1-3.09-3.748 8.494 8.494 0 0 1-.499-5.033 8.472 8.472 0 0 1 1.285-3.05 8.603 8.603 0 0 1 2.304-2.3A8.45 8.45 0 0 1 7.28.312a8.6 8.6 0 0 1 5.04.497 8.564 8.564 0 0 1 3.754 3.087 8.444 8.444 0 0 1 1.285 3.05c.115.56.173 1.137.173 1.715ZM5.89 2.078A7.288 7.288 0 0 0 1.868 7.16c.192.001 3.23.04 6.728-.889A43.818 43.818 0 0 0 5.89 2.078ZM9.2 7.392c-3.752 1.121-7.353 1.04-7.482 1.036-.002.078-.006.154-.006.232a7.24 7.24 0 0 0 1.867 4.862c-.002-.003 1.992-3.536 5.925-4.806.095-.032.191-.06.287-.088A24.597 24.597 0 0 0 9.2 7.392Zm4.612-4.194A7.258 7.258 0 0 0 9 1.383c-.593 0-1.167.072-1.718.204.11.147 1.478 1.96 2.725 4.245 2.75-1.03 3.787-2.607 3.805-2.634Zm-3.524 6.636-.048.016c-4.3 1.497-5.704 4.513-5.72 4.546A7.279 7.279 0 0 0 9 15.936a7.26 7.26 0 0 0 2.845-.576c-.108-.636-.532-2.865-1.557-5.526Zm2.784 4.86a7.279 7.279 0 0 0 3.123-4.88c-.15-.049-2.19-.694-4.542-.317.956 2.623 1.345 4.76 1.419 5.198Zm-2.504-7.777a22.839 22.839 0 0 1 .641 1.432c2.504-.315 4.97.214 5.076.236a7.234 7.234 0 0 0-1.658-4.548c-.013.02-1.182 1.706-4.06 2.88Z" fill="#fff"/></svg><svg fill="none" viewBox="0 0 18 18" id="instagram" xmlns="http://www.w3.org/2000/svg"><path fill-rule="evenodd" clip-rule="evenodd" d="M9 .138c-2.317 0-2.608.01-3.518.052-.908.042-1.528.185-2.07.396a4.179 4.179 0 0 0-1.513.984 4.19 4.19 0 0 0-.984 1.512C.703 3.625.559 4.245.518 5.153c-.04.91-.051 1.201-.051 3.519 0 2.317.01 2.607.051 3.518.042.908.186 1.528.397 2.07.218.562.51 1.038.984 1.512.474.475.95.767 1.511.985.543.211 1.163.355 2.071.397.91.041 1.201.051 3.519.051s2.607-.01 3.518-.051c.908-.042 1.529-.186 2.072-.397a4.176 4.176 0 0 0 1.51-.985c.475-.474.767-.95.985-1.511.21-.543.354-1.163.397-2.071.04-.91.051-1.2.051-3.518 0-2.318-.01-2.609-.051-3.519-.043-.908-.187-1.528-.397-2.07A4.187 4.187 0 0 0 16.1 1.57a4.17 4.17 0 0 0-1.51-.984c-.545-.21-1.165-.354-2.074-.396-.91-.041-1.2-.052-3.518-.052h.003Zm-.765 1.538h.766c2.278 0 2.548.008 3.448.05.832.037 1.284.176 1.584.293.399.155.683.34.981.638.299.299.484.583.639.982.116.3.256.752.293 1.584.041.9.05 1.17.05 3.447s-.009 2.547-.05 3.447c-.038.832-.177 1.284-.293 1.584-.155.398-.34.682-.639.98a2.638 2.638 0 0 1-.98.639c-.301.117-.753.255-1.585.294-.9.04-1.17.05-3.448.05-2.279 0-2.549-.01-3.448-.05-.832-.039-1.284-.178-1.585-.295a2.643 2.643 0 0 1-.981-.638 2.644 2.644 0 0 1-.639-.98c-.117-.301-.256-.753-.294-1.585-.04-.9-.049-1.17-.049-3.448 0-2.279.008-2.548.05-3.447.037-.832.176-1.284.293-1.585.155-.398.34-.682.639-.981.298-.299.583-.484.981-.639.3-.117.753-.256 1.585-.294.787-.035 1.092-.046 2.682-.048v.002Zm5.32 1.417a1.024 1.024 0 1 0 0 2.048 1.024 1.024 0 0 0 0-2.048ZM9.002 4.29a4.382 4.382 0 1 0 0 8.764 4.382 4.382 0 0 0 0-8.764Zm0 1.537a2.844 2.844 0 1 1 0 5.69 2.844 2.844 0 0 1 0-5.69Z" fill="#fff"/></svg><svg fill="none" viewBox="0 0 16 14" id="twitter" xmlns="http://www.w3.org/2000/svg"><path fill-rule="evenodd" clip-rule="evenodd" d="m7.52 3.677.034.553-.56-.067C4.959 3.903 3.179 3.02 1.669 1.54L.928.807l-.19.542c-.402 1.21-.145 2.486.695 3.345.447.474.346.542-.426.26-.268-.09-.503-.159-.526-.125-.078.08.19 1.107.403 1.514.291.565.884 1.119 1.533 1.446l.549.26-.65.012c-.626 0-.648.01-.581.248.224.735 1.108 1.514 2.093 1.853l.693.237-.604.362a6.3 6.3 0 0 1-3 .836c-.503.011-.917.057-.917.09 0 .114 1.365.746 2.16.995 2.384.734 5.215.418 7.342-.836 1.51-.893 3.021-2.667 3.727-4.384.38-.915.76-2.588.76-3.39 0-.52.034-.587.66-1.209.37-.361.717-.757.784-.87.112-.214.101-.214-.47-.022-.951.339-1.085.293-.615-.215.347-.362.76-1.017.76-1.209 0-.034-.167.023-.357.124-.202.113-.65.283-.985.384l-.605.193-.548-.373c-.302-.204-.727-.43-.951-.497-.571-.159-1.444-.136-1.959.045C8.304.93 7.42 2.242 7.521 3.677Z" fill="#fff"/></svg><svg fill="none" viewBox="0 0 18 14" id="youtube" xmlns="http://www.w3.org/2000/svg"><path fill-rule="evenodd" clip-rule="evenodd" d="M15.668 1.171a2.167 2.167 0 0 1 1.509 1.55c.356 1.366.356 4.218.356 4.218s0 2.85-.356 4.217a2.167 2.167 0 0 1-1.51 1.55c-1.33.366-6.667.366-6.667.366s-5.337 0-6.668-.366a2.167 2.167 0 0 1-1.509-1.55C.467 9.79.467 6.94.467 6.94s0-2.852.356-4.218a2.167 2.167 0 0 1 1.51-1.55C3.662.805 9 .805 9 .805s5.337 0 6.668.366ZM7.4 4.538v5.334l4.267-2.667L7.4 4.538Z" fill="#fff"/></svg></svg>