<?xml version="1.0" encoding="utf-8"?><svg viewBox="0 0 49 48" xmlns="http://www.w3.org/2000/svg" xmlns:xlink="http://www.w3.org/1999/xlink"><style>:root>svg{display:none}:root>svg:target{display:block}</style><svg fill="none" viewBox="0 0 48 48" id="icon-1" xmlns="http://www.w3.org/2000/svg"><path d="M23.99 10c-3.571 0-6.479 2.934-6.479 6.52a6.526 6.526 0 0 0 2.925 5.44 11.244 11.244 0 0 0-5.312 3.776 9.362 9.362 0 0 0-2.477-1.366 5.554 5.554 0 0 0 2.252-4.46c0-3.042-2.46-5.532-5.484-5.532-3.023 0-5.483 2.49-5.483 5.532 0 1.826.89 3.451 2.254 4.462A9.494 9.494 0 0 0 0 33.293v2.882a.827.827 0 0 0 .83.826h12.646c.03.004.06.005.091.005h20.846c.03 0 .062-.002.092-.005h12.646a.828.828 0 0 0 .824-.826v-2.882a9.492 9.492 0 0 0-6.18-8.921 5.553 5.553 0 0 0 2.254-4.462c0-3.042-2.46-5.532-5.483-5.532-3.023 0-5.484 2.49-5.484 5.532 0 1.825.89 3.45 2.253 4.46-.9.331-1.734.794-2.48 1.369a11.235 11.235 0 0 0-5.31-3.779 6.528 6.528 0 0 0 2.925-5.44c0-3.586-2.909-6.52-6.48-6.52Zm0 1.654c2.671 0 4.824 2.168 4.824 4.866 0 2.678-2.12 4.824-4.76 4.859-.022 0-.043-.003-.064-.003l-.063.003c-2.642-.034-4.76-2.181-4.76-4.859 0-2.698 2.152-4.866 4.823-4.866ZM9.416 16.032c2.119 0 3.829 1.72 3.829 3.878 0 2.143-1.688 3.855-3.787 3.879l-.042-.002-.043.002c-2.099-.024-3.787-1.737-3.787-3.88 0-2.156 1.71-3.877 3.83-3.877Zm29.15 0c2.119 0 3.828 1.72 3.828 3.878 0 2.143-1.687 3.855-3.787 3.879l-.042-.002-.042.002c-2.1-.024-3.787-1.737-3.787-3.88 0-2.156 1.71-3.877 3.83-3.877Zm-14.64 7c.022.001.042.004.064.004l.063-.003c5.297.034 9.537 4.31 9.537 9.662v2.656H14.39v-2.656c0-5.353 4.238-9.628 9.535-9.662ZM9.353 25.446l.063.003c.022 0 .042-.003.064-.003a7.663 7.663 0 0 1 4.728 1.666 11.312 11.312 0 0 0-1.47 5.585v2.65H1.654v-2.053c0-4.35 3.42-7.814 7.698-7.848Zm29.15 0 .063.003c.022 0 .042-.003.063-.003 4.278.034 7.699 3.498 7.699 7.849v2.051h-11.09v-2.65a11.32 11.32 0 0 0-1.467-5.581 7.663 7.663 0 0 1 4.732-1.669Z" fill="#103E13"/></svg><svg fill="none" viewBox="0 0 49 48" id="icon-2" xmlns="http://www.w3.org/2000/svg"><path d="M27.416 19.01a.566.566 0 0 1-.565-.565v-.961a.566.566 0 0 1 1.131 0v.961a.566.566 0 0 1-.566.566ZM25.038 19.01a.566.566 0 0 1-.566-.565v-.961a.566.566 0 0 1 1.132 0v.961a.566.566 0 0 1-.566.566ZM22.66 19.01a.566.566 0 0 1-.566-.565v-.961a.566.566 0 0 1 1.132 0v.961a.566.566 0 0 1-.566.566ZM27.416 22.942a.566.566 0 0 1-.565-.566v-.96a.566.566 0 0 1 1.131 0v.96a.566.566 0 0 1-.566.566ZM25.038 22.942a.566.566 0 0 1-.566-.566v-.96a.566.566 0 0 1 1.132 0v.96a.566.566 0 0 1-.566.566ZM22.66 22.942a.566.566 0 0 1-.566-.566v-.96a.566.566 0 0 1 1.132 0v.96a.566.566 0 0 1-.566.566ZM27.416 26.873a.566.566 0 0 1-.565-.565v-.962a.566.566 0 0 1 1.131 0v.962a.566.566 0 0 1-.566.565ZM25.038 26.873a.566.566 0 0 1-.566-.565v-.962a.566.566 0 0 1 1.132 0v.962a.566.566 0 0 1-.566.565ZM22.66 26.873a.566.566 0 0 1-.566-.565v-.962a.566.566 0 0 1 1.132 0v.962a.566.566 0 0 1-.566.565ZM27.416 30.804a.566.566 0 0 1-.565-.566v-.961a.566.566 0 0 1 1.131 0v.961a.566.566 0 0 1-.566.566ZM25.038 30.804a.566.566 0 0 1-.566-.566v-.961a.566.566 0 0 1 1.132 0v.961a.566.566 0 0 1-.566.566ZM22.66 30.804a.566.566 0 0 1-.566-.566v-.961a.566.566 0 0 1 1.132 0v.961a.566.566 0 0 1-.566.566ZM27.416 34.735a.566.566 0 0 1-.565-.566v-.96a.566.566 0 0 1 1.131 0v.96a.566.566 0 0 1-.566.566ZM25.038 34.735a.566.566 0 0 1-.566-.566v-.96a.566.566 0 0 1 1.132 0v.96a.566.566 0 0 1-.566.566ZM22.66 34.735a.566.566 0 0 1-.566-.566v-.96a.566.566 0 0 1 1.132 0v.96a.567.567 0 0 1-.566.566Z" fill="#103E13"/><path d="M6.5 38.647c0 .312.254.566.566.566h34.448a.566.566 0 0 0 0-1.132h-1.046v-16.24a.566.566 0 0 0-.566-.567h-9.235V9.567a.566.566 0 0 0-.827-.502l-10.5 5.467a.565.565 0 0 0-.304.502V25.26H8.874a.566.566 0 0 0-.566.566v12.256H7.065a.565.565 0 0 0-.565.565Zm24.167-8.805h8.67v8.24h-8.67v-8.24Zm0-3.93h8.67v2.8l-8.67-.001v-2.8Zm0-3.506h8.67v2.375h-8.67v-2.375Zm-10.5-7.03 9.368-4.878v27.583h-9.368V15.376Zm-7.931 18.188c0-1.175.93-2.13 2.074-2.13 1.143 0 2.074.955 2.074 2.13v4.518h-4.148v-4.519ZM9.44 26.391h9.596v11.69h-1.521v-4.519c0-1.797-1.437-3.26-3.205-3.26s-3.205 1.462-3.205 3.26v4.518H9.44v-11.69Z" fill="#103E13"/></svg><svg fill="none" viewBox="0 0 48 48" id="icon-3" xmlns="http://www.w3.org/2000/svg"><path d="M28.312 23.645c-.241 0-.465-.067-.663-.173v.003c0 .379-.148.734-.415 1a1.398 1.398 0 0 1-1.673.237 1.402 1.402 0 0 1-1.407 1.333 1.413 1.413 0 0 1-1.407-1.332 1.42 1.42 0 0 1-.767.174c-.74-.048-1.32-.688-1.32-1.456v-6.367l-.725 1.256a1.559 1.559 0 0 1-2.125.572 1.27 1.27 0 0 1-.595-.775 1.265 1.265 0 0 1 .128-.968l2.517-4.36.108-.242c.04-.09.074-.181.106-.273C20.79 10.254 22.561 9 24.697 9c2.773 0 5.03 2.447 5.03 5.455v7.774c0 .378-.147.734-.414 1.001a1.407 1.407 0 0 1-1.001.415ZM24.697 9.752c-1.836 0-3.299 1.037-3.914 2.773-.039.11-.08.22-.128.328-.139.311-.139.311-.178.356l-.005-.004c-.194.365-.769 1.361-2.478 4.32a.52.52 0 0 0 .19.715.824.824 0 0 0 1.1-.295l1.427-2.472a.376.376 0 0 1 .702.188v7.77c0 .367.276.683.616.706a.659.659 0 0 0 .71-.662v-5.081a.376.376 0 0 1 .752 0v6.236a.664.664 0 0 0 1.327 0v-6.236a.376.376 0 1 1 .752 0V23.475a.664.664 0 0 0 1.327 0v-5.081a.376.376 0 1 1 .752 0v3.835a.664.664 0 0 0 1.326 0v-7.774c0-2.593-1.92-4.703-4.278-4.703ZM13.53 29.048l5.459-3.275c.658-.396 1.505-.228 1.927.382.154.223.233.481.245.745a1.403 1.403 0 0 1 1.867.524 1.407 1.407 0 0 1-.418 1.892 1.399 1.399 0 0 1 .657 1.556c-.092.367-.321.676-.646.87l-.002.002c.197.118.367.278.489.48.194.325.251.705.16 1.072a1.408 1.408 0 0 1-.646.87l-6.666 4c-1.244.746-2.683 1.003-4.05.724-1.379-.282-2.521-1.074-3.216-2.232-1.099-1.832-.934-3.996.43-5.648.062-.075.123-.152.18-.232l.151-.217a8384.8 8384.8 0 0 0 2.444-4.4 1.276 1.276 0 0 1 1.736-.497 1.556 1.556 0 0 1 .602 2.116l-.704 1.268Zm.032-2.439a.796.796 0 0 0-.296-.288.524.524 0 0 0-.713.204c-1.648 2.969-2.21 3.98-2.426 4.34l.005.002c-.019.06-.019.06-.217.343-.067.096-.14.188-.215.279-1.173 1.42-1.309 3.208-.365 4.782.585.975 1.551 1.643 2.722 1.882 1.182.24 2.43.017 3.511-.632l6.667-4a.659.659 0 0 0 .228-.91.663.663 0 0 0-.91-.227l-3.289 1.973a.376.376 0 1 1-.387-.645l3.29-1.973 1.067-.641a.66.66 0 0 0 .228-.91.664.664 0 0 0-.91-.228l-4.357 2.614a.376.376 0 1 1-.387-.645l5.347-3.208a.66.66 0 0 0 .228-.91.66.66 0 0 0-.91-.228l-.99.594-4.358 2.615a.375.375 0 1 1-.387-.645l4.357-2.614a.66.66 0 0 0 .203-.95c-.194-.28-.608-.354-.922-.165l-6.662 3.997a.377.377 0 0 1-.523-.505l1.385-2.496a.805.805 0 0 0-.014-.805ZM39.618 36.658c-.694 1.158-1.836 1.95-3.215 2.232-1.368.279-2.806.022-4.05-.724l-6.667-4a1.408 1.408 0 0 1-.646-.87 1.399 1.399 0 0 1 .649-1.551l-.002-.002a1.405 1.405 0 0 1-.645-.87 1.407 1.407 0 0 1 .653-1.56 1.402 1.402 0 0 1-.415-1.889 1.405 1.405 0 0 1 1.867-.524c.013-.264.091-.523.245-.745.423-.61 1.269-.778 1.928-.382l5.46 3.274-.704-1.267a1.56 1.56 0 0 1 .603-2.117 1.276 1.276 0 0 1 1.735.497l2.444 4.401.152.217c.056.08.117.156.18.232 1.363 1.652 1.527 3.816.428 5.648Zm-1.009-5.169a4.457 4.457 0 0 1-.215-.279c-.204-.288-.209-.296-.224-.372-.238-.393-.819-1.438-2.415-4.313a.524.524 0 0 0-.71-.205.805.805 0 0 0-.312 1.094l1.384 2.496a.376.376 0 0 1-.522.504l-6.662-3.996c-.314-.188-.728-.115-.922.166a.659.659 0 0 0 .202.948l.001.001 4.356 2.613a.376.376 0 1 1-.387.646l-5.348-3.209a.659.659 0 0 0-.91.229.66.66 0 0 0 .228.91l1.04.623L31.5 31.93a.376.376 0 1 1-.387.645l-4.357-2.614a.663.663 0 0 0-.682 1.138l1.068.64 3.289 1.974a.376.376 0 1 1-.387.645l-3.29-1.973a.66.66 0 0 0-.91.228.662.662 0 0 0 .229.91l6.666 3.999c1.082.649 2.33.873 3.512.632 1.17-.239 2.137-.907 2.721-1.882.945-1.574.81-3.362-.363-4.782Z" fill="#103E13"/></svg></svg>